# xmcd CD database file
#
# Track frame offsets:
#	150
#	19109
#	38904
#	58141
#	78493
#	101910
#	122958
#	142613
#	161711
#	176490
#	204644
#
# Disc length: 2968 seconds
#
# Revision: 0
# Processed by: cddbd v1.5.2PL0 Copyright (c) Steve Scherf et al.
# Submitted via: jetAudio 7
#
DISCID=960b960b
DTITLE=Hevia - Al Otro Lado
DYEAR=2000
DGENRE=folk
TTITLE0=Tanzìla
TTITLE1=Fandangu Los Llobos
TTITLE2=El Saltòn
TTITLE3=Kyrie Eleyson
TTITLE4=Mermuradora
TTITLE5=Baños De Budapest
TTITLE6=El Sitiu
TTITLE7=Rubiercos
TTITLE8=Son Del Busgosu
TTITLE9=Si Quieres Que Te Cortexe
TTITLE10=Marcha Del Dos De Mayo
EXTD=
EXTT0=
EXTT1=
EXTT2=
EXTT3=
EXTT4=
EXTT5=
EXTT6=
EXTT7=
EXTT8=
EXTT9=
EXTT10=
PLAYORDER=
